<svg id="Capa_1" enable-background="new 0 0 511.811 511.811" height="512" viewBox="0 0 511.811 511.811" width="512" xmlns="http://www.w3.org/2000/svg"><g><path d="m420.771 255.811v241c0 8.399-6.599 15-15 15h-300c-8.401 0-15-6.601-15-15v-217.601c0-5.4 2.999-10.199 7.5-12.9l40.499-23.399c2.401-1.501 5.101-2.1 7.5-2.1h64.501l45 38.399 45-38.399h105c8.401 0 15 6.599 15 15z" fill="#e63950"/><path d="m420.771 255.811v241c0 8.399-6.599 15-15 15h-150v-232.601l45-38.399h105c8.401 0 15 6.599 15 15z" fill="#d0004f"/><path d="m265.972 30.011c-2.701-4.801-6.301-9.3-10.201-12.602-7.2-7.5-16.199-12.599-26.1-15.298-15.601-4.2-31.8-2.1-45.601 5.999-19.2 11.102-30.599 31.8-30 54.001.3 3 1.8 47.6 1.8 47.6-3.3-1.8-37.5-23.101-37.5-23.101-3.9-1.8-30.899-22.2-64.199-2.701-13.801 8.101-23.701 21-27.902 36.301-4.199 15.601-2.098 31.8 6 45.601 16.5 28.799 53.401 38.399 81.901 21.899l38.62-22.298-53.802-3.587c-4.524 2.582-9.623 3.941-14.782 3.941-10.723 0-20.654-5.698-25.913-14.883-4.189-7.134-5.186-14.956-3.062-22.866 2.095-7.603 7.119-14.121 14.121-18.223 4.893-2.871 9.551-4.263 14.224-4.263 7.764 0 14.194 3.794 17.637 5.83l1.904 1.084c4.702 2.93 35.2 21.855 38.364 23.584l1.128.615-.255.147.415.018 36 21 7-46 .173-.545-.09-2.583s-1.626-46.503-1.948-49.638c-.161-8.994 5.61-19.424 15.176-24.961 4.673-2.739 9.595-4.087 14.78-4.087 2.666 0 5.361.366 8.027 1.084 4.819 1.318 8.994 3.721 12.246 7.119l2.256 2.124c.85.703 2.241 2.271 3.413 4.365 7.178 12.129 4.966 28.222-4.907 37.773-1.626 1.479-3.765 3.091-5.713 4.204l-1.491.861-4.007 36.953 20.384-11.769c4.2-2.4 8.101-5.4 11.7-8.699 19.203-18.599 24.603-49.699 10.204-73.999z" fill="#fed843"/><g><g><path d="m210.771 240.811v166c0 6 3.6 11.4 9.3 13.799 5.4 2.401 12.001 1.201 16.199-3.3l19.501-19.2 19.501 19.2c4.199 4.501 10.8 5.7 16.199 3.3 5.7-2.399 9.3-7.798 9.3-13.799v-166z" fill="#fed843"/></g></g><path d="m496.771 180.811h-15v-15c0-8.291-6.709-15-15-15s-15 6.709-15 15v15h-15c-8.291 0-15 6.709-15 15s6.709 15 15 15h15v15c0 8.291 6.709 15 15 15s15-6.709 15-15v-15h15c8.291 0 15-6.709 15-15s-6.709-15-15-15z" fill="#ffb64c"/><g><circle cx="435.771" cy="105.811" fill="#ffb64c" r="15"/></g><g><circle cx="375.771" cy="195.811" fill="#ffb64c" r="15"/></g><path d="m255.771 240.811h45v166c0 6-3.6 11.4-9.3 13.799-5.4 2.401-12.001 1.201-16.199-3.3l-19.501-19.2z" fill="#ffb64c"/><path d="m255.771 104.011v-86.601c3.9 3.301 7.5 7.8 10.201 12.601 14.399 24.3 8.999 55.401-10.201 74z" fill="#ffb64c"/><path d="m385.671 117.81-45-78c-4.2-7.2-13.5-9.6-20.7-5.4l-64.2 37.2-8.595 4.958-170.579 98.421-68.326 39.422c-7.2 3.9-10.6 13.2-6.4 20.4l46 78c4.2 7.201 13.2 9.6 20.4 5.399l187.5-108.299 124.2-71.701c7.2-4.198 9.601-13.198 5.7-20.4z" fill="#ff641a"/><path d="m379.971 138.21-124.2 71.7v-138.3l64.2-37.2c7.2-4.2 16.5-1.8 20.7 5.4l45 77.999c3.901 7.203 1.5 16.202-5.7 20.401z" fill="#e63950"/></g></svg>